<?xml version="1.0" encoding="utf-8"?>
<!-- Generator: Adobe Illustrator 21.0.0, SVG Export Plug-In . SVG Version: 6.00 Build 0)  -->
<svg version="1.1" id="Layer_1" xmlns="http://www.w3.org/2000/svg" xmlns:xlink="http://www.w3.org/1999/xlink" x="0px" y="0px"
	 width="246.4px" height="125.3px" viewBox="0 0 246.4 125.3" style="enable-background:new 0 0 246.4 125.3;" xml:space="preserve"
	>
<style type="text/css">
	.st0{fill:url(#SVGID_1_);}
</style>
<g>
	<g>
		<linearGradient id="SVGID_1_" gradientUnits="userSpaceOnUse" x1="123.2177" y1="-39.3333" x2="123.2177" y2="82.6685">
			<stop  offset="0" style="stop-color:#FB4992"/>
			<stop  offset="0.1934" style="stop-color:#F84893"/>
			<stop  offset="0.3376" style="stop-color:#EE4795"/>
			<stop  offset="0.4658" style="stop-color:#DE4498"/>
			<stop  offset="0.5848" style="stop-color:#C83F9C"/>
			<stop  offset="0.6974" style="stop-color:#AA3AA2"/>
			<stop  offset="0.8051" style="stop-color:#8633A9"/>
			<stop  offset="0.9071" style="stop-color:#5C2BB2"/>
			<stop  offset="1" style="stop-color:#2F22BB"/>
		</linearGradient>
		<path class="st0" d="M137.4,125.3c-0.8,0-1.6-0.1-2.3-0.4c-2.5-1-4.1-3.4-4.1-6.1v-13.9l-16.8,18.3c-1.8,2-4.6,2.6-7.1,1.7
			c-2.5-1-4.1-3.4-4.1-6.1V23.2l-91.6,99.9c-2.4,2.6-6.5,2.8-9.2,0.4c-2.6-2.4-2.8-6.5-0.4-9.2L104.6,2.1c1.8-2,4.6-2.6,7.1-1.7
			c2.5,1,4.1,3.4,4.1,6.1V102l16.8-18.3c1.8-2,4.6-2.6,7.1-1.7c2.5,1,4.1,3.4,4.1,6.1V102L235,2.1c2.4-2.7,6.5-2.8,9.2-0.4
			s2.8,6.5,0.4,9.2L142.2,123.1C141,124.5,139.2,125.3,137.4,125.3z"/>
	</g>
</g>
</svg>
