<?xml version="1.0" encoding="utf-8"?>
<!-- Generator: Adobe Illustrator 21.0.0, SVG Export Plug-In . SVG Version: 6.00 Build 0)  -->
<svg version="1.1" id="Layer_1" xmlns="http://www.w3.org/2000/svg" xmlns:xlink="http://www.w3.org/1999/xlink" x="0px" y="0px"
	 width="396.6px" height="399px" viewBox="0 0 396.6 399" style="enable-background:new 0 0 396.6 399;" xml:space="preserve">
<style type="text/css">
	.st0{fill:#FFFFFF;}
	.st1{fill:#2D2D2D;}
</style>
<g>
	<circle class="st0" cx="198.3" cy="199.5" r="170"/>
</g>
<g>
	<g>
		<path class="st1" d="M183.5,267.6l-22.8,62.1c-1.9,5.3,1.1,11.1,6.8,12.6c9.3,2.5,18.7,3.8,28.9,3.8c10.3,0,20.8-1.3,30.8-3.9
			c5.8-1.5,9-7.3,7-12.7l-22.8-62c-1.4-3.9-5.3-6.5-9.6-6.5h-8.6C188.8,261.1,184.9,263.7,183.5,267.6z"/>
	</g>
</g>
<g>
	<g>
		<path class="st1" d="M263.2,178.4l72.2-12.6c4.2-0.7,6.9-4.7,6-8.6c-2.3-10-6-19.4-11.6-28.8s-12.9-18.3-20.9-25.8
			c-3.1-2.9-8.1-2.7-11,0.4L250,156.3c-2.1,2.3-2.4,5.6-0.8,8.3l6.2,10.3C256.9,177.6,260.1,179,263.2,178.4z"/>
	</g>
</g>
<g>
	<g>
		<path class="st1" d="M133.2,178.4L61,165.8c-4.2-0.7-6.9-4.7-6-8.6c2.3-10,6-19.4,11.6-28.8s12.9-18.3,20.9-25.8
			c3.1-2.9,8.1-2.7,11,0.4l47.9,53.2c2.1,2.3,2.4,5.6,0.8,8.3l-6.2,10.3C139.5,177.6,136.3,179,133.2,178.4z"/>
	</g>
</g>
<g>
	<path class="st1" d="M198.3,161c-21.2,0-38.5,17.3-38.5,38.5s17.3,38.5,38.5,38.5s38.5-17.3,38.5-38.5S219.5,161,198.3,161z
		 M234.6,208.8L234.6,208.8c-0.1,0.5-0.2,0.9-0.4,1.3c-0.4,0.8-1.3,1.3-2.2,1.3c-1.4,0-2.6-1.2-2.6-2.6v-0.1c0.9-3,1.3-6,1.3-9.2
		c0-3.3-0.4-6.2-1.3-9.2v-0.2c0-1.4,1.2-2.6,2.6-2.6c0.9,0,1.7,0.5,2.2,1.2c1,3.4,1.6,7,1.6,10.7
		C235.8,202.7,235.4,205.8,234.6,208.8L234.6,208.8z M198.3,231c-17.4,0-31.5-14.1-31.5-31.5s14.1-31.5,31.5-31.5
		s31.5,14.1,31.5,31.5S215.7,231,198.3,231z M230.6,180.4L230.6,180.4L230.6,180.4c0.2,0.4,0.4,0.7,0.6,1.1c0.3,0.9,0.1,1.9-0.6,2.6
		c-1,1-2.6,1-3.7,0l0,0c-3-5.6-7.5-10.1-13.1-13.2l-0.1-0.1c-0.5-0.5-0.8-1.1-0.8-1.8s0.3-1.3,0.8-1.8s1.1-0.8,1.8-0.8
		c0.2,0,0.4,0,0.7,0.1C222.1,169.7,227.1,174.6,230.6,180.4z M207.6,163.1L207.6,163.1c0.1,0,0.1,0.1,0.2,0.1c0.3,0.1,0.6,0.2,1,0.3
		c0.8,0.4,1.4,1.3,1.4,2.3c0,1.4-1.1,2.6-2.6,2.6c-3-0.9-6.1-1.4-9.3-1.4c-3.3,0-6.3,0.5-9.3,1.4h-0.1c-1.4,0-2.6-1.2-2.6-2.6
		c0-1,0.5-1.8,1.3-2.2c0.4-0.1,0.8-0.2,1.2-0.3c0,0,0,0,0.1,0l0,0c3-0.8,6.2-1.2,9.4-1.2C201.5,162,204.6,162.4,207.6,163.1z
		 M179.2,167.2L179.2,167.2L179.2,167.2c0.4-0.2,0.7-0.4,1.1-0.6c0.2-0.1,0.5-0.1,0.8-0.1c0.7,0,1.3,0.3,1.8,0.8s0.8,1.1,0.8,1.8
		s-0.3,1.3-0.7,1.8c-5.6,3-10.2,7.6-13.2,13.2l-0.1,0.1c-0.5,0.5-1.1,0.8-1.8,0.8s-1.3-0.3-1.8-0.8c-0.7-0.7-0.9-1.6-0.7-2.4
		C168.5,175.7,173.4,170.7,179.2,167.2z M162,190.2L162,190.2v-0.1c0.1-0.4,0.2-0.7,0.3-1.1c0.4-0.8,1.3-1.4,2.3-1.4
		c1.4,0,2.6,1.2,2.6,2.6l0,0c-0.9,2.9-1.4,6.1-1.4,9.3c0,3.3,0.4,6.4,1.3,9.4v0.1c0,1.4-1.2,2.6-2.6,2.6c-0.9,0-1.7-0.5-2.2-1.2
		c-1-3.4-1.6-7.1-1.6-10.8C160.8,196.3,161.2,193.2,162,190.2z M165.4,217.4c-0.1-0.2-0.1-0.4-0.1-0.6c0-0.7,0.3-1.3,0.8-1.8
		c1-1,2.6-1,3.7,0l0,0c3,5.6,7.5,10.1,13.1,13.1l0.1,0.1c1,1,1,2.6,0,3.7c-0.5,0.5-1.1,0.8-1.8,0.8c-0.2,0-0.3,0-0.5,0
		C174.2,229.1,168.9,223.8,165.4,217.4z M187.7,235.4c-0.7-0.5-1.2-1.3-1.2-2.2c0-1.4,1.2-2.6,2.6-2.6h0.1c3,0.9,6,1.3,9.2,1.3
		c3.3,0,6.2-0.4,9.2-1.3h0.2c1.4,0,2.6,1.2,2.6,2.6c0,0.9-0.5,1.7-1.1,2.1c-3.4,1-7.1,1.6-10.8,1.6C194.6,237,191,236.4,187.7,235.4
		z M216.2,232.4c-0.2,0-0.4,0.1-0.6,0.1c-0.7,0-1.3-0.3-1.8-0.8c-1-1-1-2.6,0-3.7l0.1-0.1c5.6-3,10-7.4,13-13l0.1-0.1
		c0.5-0.5,1.1-0.8,1.8-0.8s1.3,0.3,1.8,0.8c0.6,0.6,0.9,1.5,0.7,2.3C227.9,223.7,222.6,229,216.2,232.4z"/>
</g>
<g>
	<g>
		<polygon class="st1" points="205.7,170.6 213.9,174 218,165 209.8,161.6 		"/>
	</g>
	<g>
		<polygon class="st1" points="190.3,170.6 182.2,174 178,164.9 186.2,161.5 		"/>
	</g>
</g>
<g>
	<g>
		<polygon class="st1" points="228.7,206.9 225.1,214.7 233.9,218.5 237.6,210.6 		"/>
	</g>
	<g>
		<polygon class="st1" points="228.7,192.1 225.1,184.3 234.2,180.4 237.8,188.2 		"/>
	</g>
</g>
<g>
	<g>
		<polygon class="st1" points="205.7,228.5 213.9,225 217.8,233.5 209.6,237 		"/>
	</g>
	<g>
		<polygon class="st1" points="190.3,228.5 182.2,225 178.4,233.3 186.5,236.8 		"/>
	</g>
</g>
<g>
	<g>
		<path class="st1" d="M198.3,161.5c21,0,38,17,38,38s-17,38-38,38s-38-17-38-38S177.3,161.5,198.3,161.5 M198.3,157.5
			c-23.2,0-42,18.8-42,42s18.8,42,42,42s42-18.8,42-42S221.5,157.5,198.3,157.5L198.3,157.5z"/>
	</g>
	<g>
		<path class="st1" d="M198.3,170c16.3,0,29.5,13.2,29.5,29.5S214.6,229,198.3,229s-29.5-13.2-29.5-29.5S182,170,198.3,170
			 M198.3,166c-18.5,0-33.5,15-33.5,33.5s15,33.5,33.5,33.5s33.5-15,33.5-33.5S216.8,166,198.3,166L198.3,166z"/>
	</g>
	<g>
		<g>
			<polygon class="st1" points="166.8,191.8 170.5,183.7 162.5,180.3 158.8,188.4 			"/>
		</g>
		<g>
			<polygon class="st1" points="166.8,207.2 170.5,215.3 162.5,218.7 158.8,210.5 			"/>
		</g>
	</g>
</g>
<ellipse class="st1" cx="198.3" cy="199.5" rx="15" ry="15"/>
</svg>
