<?xml version="1.0" encoding="utf-8"?>
<!-- Generator: Adobe Illustrator 21.0.0, SVG Export Plug-In . SVG Version: 6.00 Build 0)  -->
<svg version="1.1" id="Layer_1" xmlns="http://www.w3.org/2000/svg" xmlns:xlink="http://www.w3.org/1999/xlink" x="0px" y="0px"
	 width="1109px" height="577.5px" viewBox="0 0 1109 577.5" style="enable-background:new 0 0 1109 577.5;" xml:space="preserve">
<style type="text/css">
	.st0{fill:#FFFFFF;}
	.st1{fill:#353535;}
	.st2{fill:#616161;}
</style>
<g>
	<polygon class="st0" points="953.8,575.5 815.3,399.5 724.4,399.5 585.9,575.5 2,575.5 2,2 1107,2 1107,575.5 	"/>
	<path class="st1" d="M1105,4v569.5H954.8L817.5,399l-1.2-1.5h-1.9h-88.9h-1.9l-1.2,1.5L585,573.5H4V4H1105 M1109,0H0v577.5h586.9
		l138.5-176h88.9l138.5,176H1109V0L1109,0z"/>
</g>
<path class="st2" d="M331.9,430.9c2.9,0,5.3-0.1,5.3-0.1s-2.4,0-5.3,0l0,0l0,0l0,0l0,0c-2.9,0-5.3,0.1-5.3,0.1
	S328.9,431,331.9,430.9L331.9,430.9C331.8,431,331.8,431,331.9,430.9C331.8,431,331.9,430.9,331.9,430.9L331.9,430.9z"/>
<g>
	<polygon class="st0" points="966.1,553.3 827.6,377.3 712.7,377.3 574.2,553.3 25.2,553.3 25.2,24 1083.8,24 1083.8,553.3 	"/>
	<path class="st1" d="M1080.3,27.5v522.4H967.8L831.4,376.5l-2.1-2.7h-3.4H714.4H711l-2.1,2.7L572.5,549.8H28.7V27.5H1080.3
		 M1087.3,20.5H21.7v536.4h554.1l138.5-176h111.5l138.5,176h122.8V20.5H1087.3z"/>
</g>
<g>
	<g>
		<polygon class="st1" points="713.2,382.3 707.5,378.3 987.9,22 993.6,26.1 		"/>
	</g>
	<g>
		<polygon class="st1" points="754.9,379.3 745.5,375.1 1024,21.3 1032.2,27 		"/>
	</g>
	<g>
		<polygon class="st1" points="802.4,380.1 785.2,376.2 1064.4,21.4 1080.9,26.3 		"/>
	</g>
	<g>
		<polygon class="st1" points="851.9,411.5 851.2,411 875.9,442.6 1083.1,179.2 1083.1,117.8 		"/>
		<polygon class="st1" points="1083.1,275.6 1083.1,195.4 882.2,450.7 913.7,490.9 		"/>
		<polygon class="st1" points="1083.1,92 1083.1,53.3 825.9,378.7 841.6,398.8 		"/>
		<polygon class="st1" points="918.1,496.6 959.9,550.1 1083.1,551.5 1083.1,286.9 		"/>
	</g>
</g>
</svg>
